<svg xmlns="http://www.w3.org/2000/svg" xmlns:xlink="http://www.w3.org/1999/xlink" viewBox="0 0 132 28"><path d="M 20.269 0.268 C 20.441 0.097 20.675 0.001 20.92 0.001 C 21.164 0.001 21.398 0.097 21.57 0.268 L 25.095 3.77 C 25.455 4.126 25.455 4.703 25.095 5.06 L 21.571 8.56 C 21.399 8.732 21.165 8.829 20.92 8.829 C 20.676 8.829 20.441 8.732 20.269 8.56 L 16.745 5.06 C 16.386 4.703 16.386 4.126 16.745 3.77 L 20.269 0.267 Z M 10.617 0.268 C 10.789 0.097 11.024 0 11.268 0 C 11.513 0 11.748 0.097 11.92 0.268 L 15.444 3.768 C 15.804 4.126 15.804 4.704 15.444 5.062 L 11.267 9.207 L 8.895 11.565 C 7.54 12.912 7.54 15.088 8.895 16.435 L 11.268 18.791 L 15.443 22.938 C 15.803 23.296 15.803 23.875 15.443 24.233 L 11.919 27.732 C 11.746 27.903 11.512 27.999 11.268 27.999 C 11.023 27.999 10.789 27.903 10.617 27.732 L 6.443 23.585 L 2.269 19.44 C -0.758 16.432 -0.758 11.568 2.269 8.56 L 4.219 6.623 Z M 20.271 9.852 C 20.443 9.682 20.677 9.586 20.921 9.586 C 21.165 9.586 21.398 9.682 21.57 9.852 L 25.098 13.355 C 28.122 16.362 28.122 21.223 25.098 24.23 L 21.571 27.733 C 21.399 27.904 21.165 28 20.921 28 C 20.677 28 20.444 27.904 20.271 27.733 L 16.745 24.23 C 16.387 23.873 16.387 23.297 16.745 22.94 L 19.291 20.411 C 20.192 19.516 20.192 18.068 19.291 17.173 L 16.745 14.645 C 16.386 14.288 16.386 13.711 16.745 13.354 Z" fill="rgb(54,108,253)"></path><path d="M 43.305 23.063 C 46.331 23.063 48.918 21.919 51.089 19.656 L 51.089 12.819 L 43.236 12.819 L 43.236 15.565 L 48.179 15.565 L 48.179 18.125 C 47.047 19.291 45.222 20.068 43.397 20.068 C 41.758 20.068 40.372 19.52 39.286 18.423 C 38.201 17.324 37.669 15.975 37.669 14.351 C 37.669 12.706 38.223 11.334 39.31 10.26 C 40.418 9.185 41.804 8.636 43.444 8.636 C 45.337 8.636 46.954 9.3 48.271 10.648 L 50.373 8.454 C 48.825 6.784 46.215 5.619 43.443 5.619 C 40.926 5.619 38.779 6.442 37.046 8.087 C 35.314 9.734 34.437 11.837 34.437 14.376 C 34.437 16.89 35.268 18.971 36.931 20.617 C 38.616 22.24 40.742 23.063 43.305 23.063 Z M 63.134 16.592 C 63.134 17.667 62.787 18.559 62.095 19.291 C 61.401 20.022 60.524 20.387 59.439 20.387 C 58.352 20.387 57.475 20.022 56.781 19.291 C 56.113 18.559 55.766 17.667 55.766 16.592 C 55.766 15.542 56.113 14.65 56.781 13.918 C 57.475 13.187 58.353 12.82 59.439 12.82 C 60.523 12.82 61.401 13.187 62.095 13.917 C 62.787 14.65 63.134 15.541 63.134 16.592 Z M 63.065 11.975 C 61.934 10.717 60.57 10.099 58.976 10.099 C 57.198 10.099 55.696 10.717 54.518 11.928 C 53.34 13.141 52.762 14.695 52.762 16.547 C 52.762 18.4 53.34 19.977 54.518 21.235 C 55.697 22.492 57.175 23.108 58.976 23.108 C 60.616 23.108 61.98 22.492 63.065 21.28 L 63.065 22.812 L 65.929 22.812 L 65.929 10.397 L 63.065 10.397 Z M 68.758 22.813 L 71.783 22.813 L 71.783 10.397 L 68.758 10.397 L 68.758 22.812 Z M 70.305 8.911 C 71.391 8.911 72.199 8.134 72.199 7.036 C 72.199 5.962 71.391 5.16 70.305 5.16 C 69.221 5.16 68.365 5.962 68.365 7.036 C 68.365 8.133 69.196 8.911 70.305 8.911 Z M 77.501 22.812 L 77.501 16.113 C 77.501 14.169 78.77 12.797 80.549 12.797 C 82.211 12.797 83.298 13.987 83.298 16.067 L 83.298 22.812 L 86.323 22.812 L 86.323 15.244 C 86.323 13.575 85.838 12.318 84.891 11.426 C 83.945 10.534 82.766 10.077 81.403 10.077 C 79.58 10.077 78.124 10.877 77.455 12.135 L 77.455 10.395 L 74.498 10.395 L 74.498 22.811 L 77.501 22.811 Z M 90.238 23.177 C 91.232 23.177 91.995 22.4 91.995 21.394 C 91.995 20.411 91.232 19.656 90.238 19.656 C 89.221 19.656 88.414 20.412 88.414 21.394 C 88.414 22.4 89.221 23.177 90.238 23.177 Z M 97.225 16.616 C 97.225 15.565 97.572 14.672 98.241 13.941 C 98.91 13.209 99.788 12.844 100.874 12.844 C 101.959 12.844 102.837 13.209 103.507 13.941 C 104.177 14.649 104.524 15.541 104.524 16.616 C 104.524 17.69 104.177 18.583 103.507 19.314 C 102.837 20.022 101.959 20.388 100.874 20.388 C 99.788 20.388 98.91 20.022 98.241 19.314 C 97.572 18.583 97.225 17.69 97.225 16.616 Z M 101.359 10.1 C 99.719 10.1 98.358 10.74 97.272 12.043 L 97.272 10.397 L 94.268 10.397 L 94.268 27.91 L 97.293 27.91 L 97.293 21.258 C 98.379 22.491 99.742 23.109 101.336 23.109 C 103.116 23.109 104.592 22.491 105.771 21.234 C 106.949 19.977 107.549 18.423 107.549 16.592 C 107.549 14.786 106.972 13.254 105.793 11.997 C 104.616 10.74 103.138 10.1 101.359 10.1 Z M 112.642 22.812 L 112.642 16.752 C 112.642 14.169 113.935 12.935 115.806 12.935 C 116.268 12.935 116.753 13.026 117.261 13.186 L 117.515 10.327 C 117.033 10.161 116.525 10.076 116.014 10.076 C 114.466 10.076 113.289 10.762 112.526 12.111 L 112.526 10.396 L 109.639 10.396 L 109.639 22.812 Z M 128.106 16.594 C 128.106 17.644 127.759 18.536 127.043 19.268 C 126.326 19.999 125.472 20.365 124.434 20.365 C 123.393 20.365 122.538 19.999 121.823 19.269 C 121.106 18.536 120.761 17.645 120.761 16.594 C 120.761 15.565 121.106 14.672 121.823 13.941 C 122.538 13.209 123.393 12.844 124.434 12.844 C 125.472 12.844 126.326 13.209 127.043 13.941 C 127.759 14.672 128.106 15.565 128.106 16.594 Z M 117.735 16.594 C 117.735 18.445 118.359 20 119.606 21.258 C 120.877 22.514 122.47 23.132 124.434 23.132 C 126.397 23.132 127.99 22.514 129.237 21.258 C 130.508 19.999 131.131 18.445 131.131 16.594 C 131.131 14.764 130.508 13.231 129.237 11.974 C 127.99 10.717 126.397 10.078 124.434 10.078 C 122.47 10.078 120.877 10.717 119.606 11.975 C 118.359 13.231 117.735 14.763 117.735 16.594 Z" fill="rgb(42,42,94)"></path></svg>